<svg xmlns="http://www.w3.org/2000/svg" width="120" height="121" viewBox="0 0 120 121" fill="none"><rect y="0.5" width="120" height="120" rx="60" fill="#FFB9F4"></rect><path d="M64.0738 73.6099H38.7593C37.6314 73.6099 36.712 72.5679 36.712 71.2929V53.7382H78.1102V55.2583C78.1102 55.9326 78.6618 56.4842 79.3361 56.4842C80.0103 56.4842 80.562 55.9326 80.562 55.2583V46.2726C80.562 43.6369 78.5393 41.5039 76.063 41.5039H38.7593C36.283 41.5039 34.2603 43.6492 34.2603 46.2726V71.2929C34.2603 73.9286 36.283 76.0616 38.7593 76.0616H64.0738C64.748 76.0616 65.2997 75.51 65.2997 74.8357C65.2997 74.1615 64.748 73.6099 64.0738 73.6099ZM38.7593 43.9679H76.0507C77.1785 43.9679 78.0979 45.0099 78.0979 46.2849V51.2865H36.712V46.2849C36.712 45.0099 37.6314 43.9679 38.7593 43.9679Z" fill="black"></path><path d="M42.2286 66.5C41.5543 66.5 41.0027 67.0516 41.0027 67.7259C41.0027 68.4001 41.5543 68.9518 42.2286 68.9518H47.9412C48.6154 68.9518 49.1671 68.4001 49.1671 67.7259C49.1671 67.0516 48.6154 66.5 47.9412 66.5H42.2286Z" fill="black"></path><path d="M85.7229 61.498C85.6862 60.9096 85.2326 60.4315 84.6441 60.358C78.5392 59.6102 76.492 56.6435 76.4062 56.5209C76.1855 56.1654 75.7933 55.9693 75.3887 55.957C74.9964 55.9815 74.5796 56.1654 74.359 56.5087C74.2732 56.6313 72.2259 59.6102 66.121 60.3457C65.5326 60.4193 65.079 60.8974 65.0422 61.4858C65.0055 62.0129 64.319 74.2963 74.8493 79.3715C75.0209 79.4573 75.1926 79.494 75.3765 79.494C75.5603 79.494 75.7442 79.4573 75.9036 79.3715C86.4339 74.2963 85.7474 62.0006 85.7229 61.4858V61.498ZM75.3765 76.8952C68.3276 73.1562 67.5185 65.3964 67.4695 62.6381C71.6865 61.9148 74.1383 60.1986 75.3765 59.0217C76.6146 60.1986 79.0786 61.9148 83.2834 62.6381C83.2221 65.3964 82.413 73.1562 75.3765 76.8952Z" fill="black"></path></svg>