<svg xmlns="http://www.w3.org/2000/svg" width="120" height="121" viewBox="0 0 120 121" fill="none"><rect y="0.5" width="120" height="120" rx="60" fill="#FFF28C"></rect><path d="M72.7551 48.0325H66.4186C66.0075 49.1976 64.8975 50.0312 63.5908 50.0312C63.1277 50.0312 62.6893 49.9265 62.2979 49.7394L54.305 57.7324C54.4921 58.1238 54.5968 58.5622 54.5968 59.0253C54.5968 60.6825 53.256 62.0234 51.5988 62.0234C50.7896 62.0234 50.0559 61.7037 49.5168 61.1836L44.6034 63.6403V76.0142H50.5994V67.0201C50.5994 66.4682 51.0468 66.0207 51.5988 66.0207H58.5941V61.024C58.5941 60.4721 59.0416 60.0247 59.5935 60.0247H66.5889V55.028C66.5889 54.476 67.0363 54.0286 67.5882 54.0286H75.5829C76.1348 54.0286 76.5822 54.476 76.5822 55.028V77.0135C76.5822 77.5655 76.1348 78.0129 75.5829 78.0129H43.6041C43.0521 78.0129 42.6047 77.5655 42.6047 77.0135V63.0444C42.6044 63.0304 42.6044 63.0165 42.6047 63.0026V45.0345C42.6047 44.4826 43.0521 44.0352 43.6041 44.0352C44.156 44.0352 44.6034 44.4826 44.6034 45.0345V61.4057L48.6233 59.3957C48.6084 59.2744 48.6007 59.1508 48.6007 59.0253C48.6007 57.3681 49.9416 56.0273 51.5988 56.0273C52.0619 56.0273 52.5003 56.132 52.8917 56.3191L60.8846 48.3261C60.6975 47.9348 60.5928 47.4963 60.5928 47.0332C60.5928 45.376 61.9336 44.0352 63.5908 44.0352C64.8975 44.0352 66.0075 44.8688 66.4186 46.0338H72.7551C73.1662 44.8688 74.2762 44.0352 75.5829 44.0352C77.2401 44.0352 78.5809 45.376 78.5809 47.0332C78.5809 48.6904 77.2401 50.0312 75.5829 50.0312C74.2762 50.0312 73.1662 49.1976 72.7551 48.0325ZM62.8609 47.7169C62.8688 47.7243 62.8767 47.7319 62.8844 47.7396C62.8921 47.7474 62.8997 47.7552 62.9072 47.7631C63.0857 47.9304 63.326 48.0325 63.5908 48.0325C64.1442 48.0325 64.5902 47.5865 64.5902 47.0332C64.5902 46.4798 64.1442 46.0338 63.5908 46.0338C63.0375 46.0338 62.5915 46.4798 62.5915 47.0332C62.5915 47.2981 62.6937 47.5383 62.8609 47.7169ZM50.7236 59.5093C50.8936 59.817 51.2212 60.0247 51.5988 60.0247C52.1521 60.0247 52.5981 59.5787 52.5981 59.0253C52.5981 58.7605 52.4959 58.5202 52.3287 58.3417C52.3208 58.3342 52.3129 58.3266 52.3052 58.3189C52.2974 58.3112 52.2899 58.3033 52.2824 58.2954C52.1039 58.1282 51.8636 58.026 51.5988 58.026C51.0454 58.026 50.5994 58.472 50.5994 59.0253C50.5994 59.1717 50.6306 59.3106 50.6868 59.4357C50.6933 59.4475 50.6997 59.4596 50.7058 59.4718C50.712 59.4842 50.7179 59.4967 50.7236 59.5093ZM52.5981 76.0142H58.5941V68.0194H52.5981V76.0142ZM60.5928 76.0142H66.5889V62.0234H60.5928V76.0142ZM68.5875 76.0142H74.5836V56.0273H68.5875V76.0142ZM76.5822 47.0332C76.5822 46.4798 76.1362 46.0338 75.5829 46.0338C75.0295 46.0338 74.5836 46.4798 74.5836 47.0332C74.5836 47.5865 75.0295 48.0325 75.5829 48.0325C76.1362 48.0325 76.5822 47.5865 76.5822 47.0332Z" fill="black"></path></svg>