<svg xmlns="http://www.w3.org/2000/svg" width="65" height="65" viewBox="0 0 65 65" fill="none"><path d="M55.7142 31.7783C55.7142 30.2262 54.6127 28.8958 53.1257 28.6741L49.711 28.0643C49.4356 27.1774 49.0501 26.2905 48.6095 25.459L50.5922 22.5765C51.4734 21.3016 51.3082 19.5831 50.2067 18.5299L47.5631 15.8692C46.4615 14.7605 44.7542 14.6497 43.5426 15.5366L43.3773 15.6474C42.5512 11.6009 39.5771 8.21951 35.5566 7.05543C35.2262 6.94457 34.8957 7 34.5653 7.22173C34.2899 7.44346 34.1247 7.77605 34.1247 8.10865V14.3725C34.1247 14.9823 33.629 15.4812 33.0231 15.4812H31.9216C31.3158 15.4812 30.8201 14.9823 30.8201 14.3725V8.10865C30.8201 7.77605 30.6549 7.44346 30.3795 7.22173C30.1042 7 29.7186 6.94457 29.3882 7.05543C25.3126 8.21951 22.3385 11.6563 21.6225 15.7583L21.3472 15.592C20.0804 14.7051 18.3731 14.8714 17.3267 15.98L14.683 18.6408C13.5815 19.7494 13.4714 21.4124 14.3526 22.6874L16.3353 25.5698C15.8947 26.4013 15.5642 27.2882 15.2889 28.1752L11.8742 28.7849C10.3872 29.0621 9.28564 30.3925 9.28564 31.8891V35.6585C9.28564 37.2106 10.3872 38.541 11.8742 38.7627L15.2889 39.3725C15.5642 40.2594 15.9498 41.1463 16.3904 41.9778L14.4077 44.8603C13.5265 46.1353 13.6917 47.8537 14.7932 48.9069L17.4368 51.5676C18.5383 52.6763 20.2457 52.7871 21.4573 51.9002L24.3212 49.9047C25.1474 50.3481 26.0286 50.6807 26.9098 50.9579L27.5156 54.3947C27.791 55.8914 29.1128 57 30.5998 57H34.345C35.8871 57 37.1538 55.8914 37.4292 54.3947L38.035 50.9579C38.9162 50.6807 39.7974 50.2927 40.6236 49.8492L43.4875 51.8448C44.7542 52.7317 46.4615 52.5654 47.508 51.4568L50.1516 48.796C51.2531 47.6874 51.3633 46.0244 50.4821 44.7494L48.4993 41.867C48.9399 41.0355 49.2704 40.1486 49.5458 39.2616L52.9604 38.6519C54.4475 38.3747 55.549 37.0443 55.549 35.4922L55.7142 31.7783ZM23.7154 17.4213V17.3104C23.8806 14.0399 25.8083 11.2129 28.6722 9.77162V14.4279C28.6722 16.2572 30.1592 17.7539 31.9767 17.7539H33.0782C34.8957 17.7539 36.3827 16.2572 36.3827 14.4279V9.77162C39.1916 11.1574 41.1192 13.9845 41.3395 17.1996C41.3395 17.3659 41.3395 17.5322 41.3395 17.7539C41.3395 20.4146 40.183 22.9091 38.1452 24.5721C37.7596 24.9047 37.319 25.1818 36.8784 25.459C35.8871 26.0133 35.2812 27.122 35.2812 28.286V40.8138C34.6754 41.0355 34.0696 41.2018 33.4638 41.2572H31.7013C31.0404 41.2018 30.4346 41.0355 29.8288 40.8138V28.286C29.8288 27.122 29.2229 26.0133 28.2316 25.459C27.791 25.1818 27.3504 24.9047 26.9649 24.5721C24.9271 22.9091 23.7705 20.4146 23.7705 17.7539C23.7154 17.5876 23.7154 17.5322 23.7154 17.4213ZM40.6786 33.0532C40.6786 35.6585 39.467 38.0421 37.4843 39.5942V28.286C37.4843 27.898 37.6495 27.5654 37.9799 27.3437C38.035 27.2882 38.1452 27.2328 38.2002 27.1774C39.7974 28.7849 40.6786 30.8359 40.6786 33.0532ZM27.5707 28.286V39.6497C25.588 38.0976 24.3763 35.714 24.3763 33.1086C24.3763 30.8359 25.2575 28.7849 26.8547 27.1774C26.9098 27.2328 27.0199 27.2882 27.075 27.3437C27.4055 27.51 27.5707 27.898 27.5707 28.286ZM52.7401 36.5455L48.7196 37.2661C48.279 37.3215 47.9486 37.6541 47.8384 38.0421C47.508 39.2616 47.0123 40.3703 46.4615 41.4789C46.2412 41.867 46.2963 42.3104 46.5166 42.643L48.8849 46.0244C49.1602 46.4124 49.1052 46.9113 48.7747 47.2439L46.1311 49.9047C45.8006 50.2372 45.305 50.2927 44.9194 50.0155L41.5598 47.6319C41.2294 47.3548 40.7337 47.3548 40.3482 47.5765C39.3017 48.1863 38.1452 48.6851 36.9335 49.0177C36.4929 49.1286 36.2175 49.4612 36.1624 49.9047L35.4465 54.0066C35.3914 54.4501 34.9508 54.7827 34.5102 54.7827H30.7651C30.3245 54.7827 29.9389 54.4501 29.8288 54.0066L29.1128 49.9047C29.0577 49.4612 28.7273 49.1286 28.3417 49.0177C27.1301 48.6851 26.0286 48.1863 24.9271 47.6319C24.5415 47.4102 24.1009 47.4656 23.7705 47.6874L20.4109 50.071C20.0254 50.3481 19.5297 50.2927 19.1992 49.9601L16.5556 47.2993C16.2251 46.9667 16.1701 46.4678 16.4454 46.0798L18.8137 42.6984C19.0891 42.3659 19.0891 41.867 18.8688 41.4789C18.2629 40.4257 17.7673 39.2616 17.4368 38.0421C17.3267 37.5987 16.9411 37.3215 16.5556 37.2661L12.48 36.5455C12.0394 36.49 11.709 36.102 11.709 35.6031V31.8337C11.709 31.3902 12.0394 31.0022 12.48 30.8914L16.5005 30.1707C16.9411 30.1153 17.2716 29.7827 17.3817 29.3947C17.7122 28.1752 18.2079 27.0665 18.7586 25.9579C18.9789 25.5698 18.9238 25.1264 18.7035 24.7938L16.3353 21.4124C16.0599 21.0244 16.115 20.5255 16.4454 20.1929L19.0891 17.5322C19.4195 17.1996 19.9152 17.1441 20.3007 17.4213L21.6225 18.3636C21.7878 21.2461 23.0545 23.9623 25.1474 25.9024C23.2748 27.8426 22.2284 30.4479 22.2284 33.1641C22.2284 36.9889 24.3212 40.5366 27.6808 42.3104C27.9011 42.4213 28.0664 42.5322 28.2867 42.5876C29.6635 43.1973 31.0955 43.5299 32.5825 43.5299C34.0696 43.5299 35.5015 43.1973 36.8784 42.5876C37.0987 42.4767 37.264 42.4213 37.4843 42.3104C40.8439 40.4812 42.9367 36.9335 42.9367 33.1086C42.9367 30.3925 41.8903 27.8426 40.0177 25.9024C42.1657 23.9069 43.4324 21.1907 43.5426 18.2528L44.8093 17.3659C45.1948 17.0887 45.6905 17.1441 46.0209 17.4767L48.6646 20.1375C48.995 20.4701 49.0501 20.969 48.7747 21.357L46.4065 24.7384C46.1311 25.071 46.1311 25.5698 46.3514 25.9579C46.9572 27.0111 47.4529 28.1752 47.7834 29.3947C47.8935 29.8381 48.224 30.1153 48.6646 30.1707L52.7401 30.8914C53.1807 30.9468 53.5112 31.3902 53.5112 31.8337V35.6031C53.5112 36.0466 53.1807 36.4346 52.7401 36.5455Z" fill="#F47521"></path></svg>