<svg xmlns="http://www.w3.org/2000/svg" width="120" height="121" viewBox="0 0 120 121" fill="none"><rect y="0.5" width="120" height="120" rx="60" fill="#FAC38E"></rect><path d="M68.8636 61.6683L68.1638 61.5284L68.537 60.9686C68.8301 60.5884 68.9772 60.1157 68.9515 59.6364C68.9258 59.157 68.7291 58.7028 68.397 58.3561L66.531 56.4901C66.1978 56.1547 65.7546 55.951 65.283 55.9167C64.8115 55.8824 64.3434 56.0198 63.9652 56.3035L63.3588 56.7234L63.2655 56.1169C63.1987 55.6427 62.9644 55.208 62.6051 54.8914C62.2457 54.5748 61.785 54.3973 61.3061 54.3908H58.6937C58.226 54.3843 57.7713 54.5453 57.412 54.8448C57.0526 55.1442 56.8123 55.5624 56.7344 56.0236L56.5944 56.77L56.0346 56.3968C55.6544 56.1037 55.1818 55.9566 54.7024 55.9823C54.2231 56.008 53.7688 56.2047 53.4222 56.5367L51.5561 58.4028C51.2207 58.736 51.0171 59.1792 50.9828 59.6508C50.9485 60.1223 51.0858 60.5903 51.3695 60.9686L51.7894 61.575L51.1363 61.6683C50.6621 61.7351 50.2274 61.9693 49.9108 62.3287C49.5942 62.688 49.4167 63.1488 49.4102 63.6277V66.2401C49.4068 66.7217 49.5809 67.1878 49.8993 67.5492C50.2177 67.9106 50.658 68.1421 51.1363 68.1994L51.836 68.3394L51.4628 68.8992C51.1697 69.2793 51.0227 69.752 51.0483 70.2314C51.074 70.7107 51.2707 71.165 51.6028 71.5116L53.4688 73.3777C53.6536 73.5587 53.8724 73.7014 54.1126 73.7975C54.3528 73.8936 54.6097 73.9412 54.8683 73.9375C55.2875 73.9442 55.6973 73.8131 56.0346 73.5643L56.6411 73.1444L56.7344 73.7975C56.8011 74.2717 57.0354 74.7064 57.3947 75.023C57.7541 75.3396 58.2148 75.5171 58.6937 75.5236H61.3061C61.7878 75.527 62.2538 75.3529 62.6152 75.0345C62.9767 74.7161 63.2081 74.2758 63.2655 73.7975L63.4054 73.0978L63.9652 73.471C64.3126 73.74 64.7388 73.8875 65.1781 73.8908C65.4368 73.8945 65.6937 73.847 65.9339 73.7509C66.1741 73.6548 66.3929 73.5121 66.5777 73.331L68.4437 71.465C68.7791 71.1318 68.9828 70.6885 69.0171 70.217C69.0514 69.7455 68.914 69.2774 68.6303 68.8992L68.2104 68.2927L68.8636 68.1994C69.3378 68.1326 69.7725 67.8984 70.089 67.5391C70.4056 67.1797 70.5832 66.719 70.5896 66.2401V63.6277C70.5931 63.146 70.4189 62.68 70.1005 62.3186C69.7822 61.9571 69.3418 61.7257 68.8636 61.6683ZM68.6769 66.2401C68.6769 66.2867 68.6303 66.3334 68.537 66.38L66.3911 66.7533C66.2375 66.7805 66.0932 66.8459 65.9713 66.9433C65.8495 67.0408 65.7541 67.1672 65.6938 67.3111C65.6334 67.4549 65.6101 67.6116 65.626 67.7668C65.6419 67.922 65.6964 68.0708 65.7846 68.1994L67.0908 70.0188C67.1008 70.0276 67.1087 70.0383 67.1142 70.0504C67.1196 70.0625 67.1224 70.0755 67.1224 70.0888C67.1224 70.102 67.1196 70.1151 67.1142 70.1272C67.1087 70.1392 67.1008 70.15 67.0908 70.1588L65.2248 72.0248C65.1781 72.0714 65.1315 72.0714 65.0382 72.0248L63.2655 70.7186C63.1368 70.6304 62.9881 70.5758 62.8329 70.56C62.6777 70.5441 62.521 70.5674 62.3771 70.6277C62.2333 70.688 62.1068 70.7835 62.0094 70.9053C61.9119 71.0271 61.8466 71.1714 61.8193 71.325L61.3994 73.5176L61.3061 73.6109H58.6937C58.647 73.6109 58.6004 73.5643 58.5537 73.471L58.1805 71.325C58.1535 71.1708 58.088 71.0258 57.9901 70.9035C57.8923 70.7812 57.7653 70.6855 57.6207 70.6253L57.2475 70.532C57.0456 70.532 56.8492 70.5974 56.6877 70.7186L54.8683 72.0248H54.7284L52.8624 70.1588C52.8157 70.1121 52.8157 70.0655 52.8624 69.9722L54.1219 68.1994C54.2101 68.0708 54.2647 67.922 54.2805 67.7668C54.2964 67.6116 54.2731 67.4549 54.2128 67.3111C54.1525 67.1672 54.057 67.0408 53.9352 66.9433C53.8134 66.8459 53.6691 66.7805 53.5155 66.7533L51.2762 66.38C51.2515 66.38 51.2278 66.3702 51.2103 66.3527C51.1928 66.3352 51.1829 66.3115 51.1829 66.2867V63.6277C51.1829 63.581 51.2296 63.5344 51.3229 63.4877L53.4688 63.1145C53.6224 63.0872 53.7667 63.0219 53.8885 62.9244C54.0104 62.827 54.1058 62.7005 54.1661 62.5567C54.2265 62.4128 54.2498 62.2561 54.2339 62.1009C54.218 61.9457 54.1635 61.797 54.0753 61.6683L52.7691 59.8489C52.7591 59.8402 52.7512 59.8294 52.7457 59.8174C52.7403 59.8053 52.7375 59.7922 52.7375 59.779C52.7375 59.7657 52.7403 59.7527 52.7457 59.7406C52.7512 59.7285 52.7591 59.7178 52.7691 59.709L54.6351 57.843C54.6817 57.7963 54.7284 57.7963 54.8217 57.843L56.7344 59.1492C56.863 59.2374 57.0118 59.2919 57.167 59.3078C57.3222 59.3237 57.4789 59.3004 57.6227 59.24C57.7666 59.1797 57.893 59.0843 57.9905 58.9625C58.0879 58.8406 58.1533 58.6963 58.1805 58.5427L58.6004 56.3035L58.6937 56.2102H61.3061C61.3528 56.2102 61.3994 56.2568 61.4461 56.3501L61.8193 58.4961C61.8399 58.6537 61.9004 58.8034 61.9951 58.9311C62.0898 59.0588 62.2156 59.1601 62.3604 59.2255C62.5053 59.2909 62.6645 59.3183 62.8229 59.3049C62.9813 59.2916 63.1336 59.238 63.2655 59.1492L65.0848 57.843H65.2248L67.0908 59.709C67.1375 59.7556 67.1375 59.8023 67.0908 59.8956L65.8313 61.6683C65.7431 61.797 65.6885 61.9457 65.6727 62.1009C65.6568 62.2561 65.6801 62.4128 65.7404 62.5567C65.8007 62.7005 65.8962 62.827 66.018 62.9244C66.1398 63.0219 66.2841 63.0872 66.4377 63.1145L68.6303 63.4877H68.6769C68.7017 63.4877 68.7254 63.4975 68.7429 63.515C68.7604 63.5325 68.7703 63.5563 68.7703 63.581L68.6769 66.2401Z" fill="black" stroke="black" stroke-width="0.4"></path><path d="M60 60.4062C59.105 60.4062 58.2301 60.6716 57.486 61.1689C56.7418 61.6661 56.1618 62.3728 55.8193 63.1997C55.4768 64.0265 55.3872 64.9364 55.5618 65.8142C55.7364 66.692 56.1674 67.4983 56.8002 68.1311C57.4331 68.764 58.2394 69.1949 59.1172 69.3695C59.995 69.5441 60.9048 69.4545 61.7317 69.112C62.5585 68.7695 63.2652 68.1895 63.7625 67.4454C64.2597 66.7012 64.5251 65.8264 64.5251 64.9314C64.5251 64.3371 64.408 63.7487 64.1806 63.1997C63.9532 62.6507 63.6199 62.1518 63.1997 61.7316C62.7795 61.3114 62.2807 60.9781 61.7317 60.7507C61.1827 60.5233 60.5942 60.4062 60 60.4062ZM60 67.5905C59.4741 67.5905 58.9599 67.4345 58.5227 67.1423C58.0854 66.8501 57.7446 66.4348 57.5433 65.949C57.342 65.4631 57.2894 64.9284 57.392 64.4126C57.4946 63.8968 57.7478 63.423 58.1197 63.0511C58.4916 62.6792 58.9654 62.426 59.4812 62.3234C59.997 62.2208 60.5317 62.2734 61.0176 62.4747C61.5035 62.676 61.9187 63.0168 62.2109 63.4541C62.5031 63.8913 62.6591 64.4055 62.6591 64.9314C62.6591 65.2806 62.5903 65.6263 62.4567 65.949C62.323 66.2716 62.1272 66.5647 61.8802 66.8116C61.6333 67.0586 61.3402 67.2544 61.0176 67.388C60.695 67.5217 60.3492 67.5905 60 67.5905Z" fill="black" stroke="black" stroke-width="0.4"></path><path d="M80.3862 46.5981C80.3862 45.1134 79.7965 43.6895 78.7466 42.6396C77.6968 41.5898 76.2729 41 74.7882 41H45.2116C43.7269 41 42.303 41.5898 41.2532 42.6396C40.2033 43.6895 39.6135 45.1134 39.6135 46.5981V74.4019C39.6135 75.8866 40.2033 77.3105 41.2532 78.3604C42.303 79.4102 43.7269 80 45.2116 80H74.7882C76.2729 80 77.6968 79.4102 78.7466 78.3604C79.7965 77.3105 80.3862 75.8866 80.3862 74.4019V46.5981ZM45.2583 42.866H74.7882C75.778 42.866 76.7272 43.2592 77.4271 43.9591C78.127 44.659 78.5202 45.6083 78.5202 46.5981V49.3971H41.4796V46.5981C41.4796 45.6083 41.8728 44.659 42.5726 43.9591C43.2725 43.2592 44.2218 42.866 45.2116 42.866H45.2583ZM74.7882 78.134H45.2116C44.2218 78.134 43.2725 77.7408 42.5726 77.0409C41.8728 76.341 41.4796 75.3917 41.4796 74.4019V51.2632H78.5202V74.4019C78.5202 75.3917 78.127 76.341 77.4271 77.0409C76.7272 77.7408 75.778 78.134 74.7882 78.134Z" fill="black" stroke="black" stroke-width="0.4"></path><path d="M48.6172 45.1992H45.6782V47.0652H48.6172V45.1992Z" fill="black" stroke="black" stroke-width="0.4"></path></svg>