<svg xmlns="http://www.w3.org/2000/svg" width="65" height="65" viewBox="0 0 65 65" fill="none"><path d="M21.0395 40.4997L24.2872 43.7473C24.4253 43.8855 24.6127 43.9633 24.8081 43.9637C25.0035 43.9641 25.1911 43.887 25.3298 43.7493L28.4518 40.6512L31.1938 43.3932C31.283 43.4824 31.3935 43.5473 31.5149 43.5816C31.6362 43.616 31.7644 43.6187 31.8871 43.5895C32.0098 43.5604 32.123 43.5002 32.2159 43.4149C32.3088 43.3296 32.3783 43.2219 32.4177 43.1021L37.2384 28.4814C37.2811 28.3515 37.287 28.2123 37.2553 28.0793C37.2236 27.9463 37.1557 27.8247 37.059 27.7281C36.9624 27.6314 36.8408 27.5635 36.7078 27.5318C36.5748 27.5001 36.4356 27.506 36.3058 27.5487L21.6849 32.3694C21.5651 32.4089 21.4574 32.4784 21.3721 32.5712C21.2868 32.6641 21.2267 32.7773 21.1975 32.9C21.1683 33.0227 21.171 33.1509 21.2054 33.2722C21.2398 33.3936 21.3046 33.5041 21.3938 33.5933L24.1358 36.3353L21.0377 39.457C20.9 39.5957 20.8229 39.7833 20.8232 39.9787C20.8236 40.1741 20.9014 40.3615 21.0395 40.4997ZM25.7026 36.8534C25.8403 36.7147 25.9173 36.5271 25.917 36.3317C25.9166 36.1362 25.8388 35.9489 25.7006 35.8107L23.2865 33.3966L35.3763 29.4105L31.3903 41.5003L28.9762 39.0861C28.838 38.9479 28.6507 38.8701 28.4553 38.8697C28.2599 38.8693 28.0722 38.9464 27.9335 39.084L24.8115 42.1822L22.6046 39.9753L25.7026 36.8534Z" fill="#F47521" stroke="#F47521" stroke-width="0.824557"></path><path d="M40.1401 23.6031L38.3821 25.3612C38.3135 25.4298 38.2591 25.5113 38.222 25.6009C38.1849 25.6905 38.1658 25.7866 38.1658 25.8836C38.1658 25.9806 38.1849 26.0767 38.222 26.1663C38.2592 26.2559 38.3136 26.3374 38.3822 26.406C38.4508 26.4746 38.5322 26.529 38.6219 26.5661C38.7115 26.6032 38.8076 26.6223 38.9046 26.6223C39.0016 26.6223 39.0976 26.6032 39.1873 26.566C39.2769 26.5289 39.3583 26.4745 39.4269 26.4059L41.1849 24.6478C41.2535 24.5792 41.3079 24.4978 41.3451 24.4082C41.3822 24.3185 41.4013 24.2225 41.4013 24.1254C41.4013 24.0284 41.3822 23.9324 41.345 23.8427C41.3079 23.7531 41.2535 23.6717 41.1849 23.6031C41.1163 23.5345 41.0348 23.4801 40.9452 23.4429C40.8556 23.4058 40.7595 23.3867 40.6625 23.3867C40.5655 23.3867 40.4694 23.4058 40.3798 23.443C40.2902 23.4801 40.2087 23.5345 40.1401 23.6031Z" fill="#F47521" stroke="#F47521" stroke-width="0.824557"></path><path d="M38.3821 34.2103L40.1401 35.9684C40.2087 36.037 40.2901 36.0914 40.3798 36.1285C40.4694 36.1657 40.5655 36.1848 40.6625 36.1848C40.7595 36.1848 40.8555 36.1657 40.9452 36.1286C41.0348 36.0915 41.1162 36.0371 41.1848 35.9685C41.2534 35.8999 41.3079 35.8185 41.345 35.7288C41.3821 35.6392 41.4012 35.5431 41.4013 35.4461C41.4013 35.3491 41.3822 35.2531 41.345 35.1634C41.3079 35.0738 41.2535 34.9924 41.1849 34.9238L39.4269 33.1656C39.3583 33.097 39.2769 33.0426 39.1873 33.0055C39.0976 32.9683 39.0016 32.9492 38.9046 32.9492C38.8076 32.9492 38.7115 32.9683 38.6219 33.0054C38.5322 33.0425 38.4508 33.097 38.3822 33.1655C38.3136 33.2341 38.2592 33.3156 38.222 33.4052C38.1849 33.4948 38.1658 33.5909 38.1658 33.6879C38.1658 33.7849 38.1849 33.881 38.222 33.9706C38.2591 34.0602 38.3135 34.1417 38.3821 34.2103Z" fill="#F47521" stroke="#F47521" stroke-width="0.824557"></path><path d="M31.101 26.6223C31.2471 26.6223 31.39 26.579 31.5114 26.4978C31.6329 26.4167 31.7276 26.3013 31.7835 26.1663C31.8394 26.0313 31.8541 25.8828 31.8256 25.7395C31.7971 25.5962 31.7267 25.4646 31.6234 25.3612L29.8652 23.6031C29.7266 23.4646 29.5387 23.3867 29.3428 23.3867C29.1469 23.3867 28.959 23.4645 28.8204 23.6031C28.6819 23.7416 28.604 23.9295 28.604 24.1254C28.604 24.3214 28.6818 24.5093 28.8204 24.6478L30.5784 26.4059C30.6469 26.4746 30.7284 26.5291 30.8181 26.5663C30.9078 26.6034 31.0039 26.6225 31.101 26.6223Z" fill="#F47521" stroke="#F47521" stroke-width="0.824557"></path><path d="M35.7008 24.2638V21.7778C35.7008 21.5819 35.623 21.394 35.4844 21.2554C35.3459 21.1169 35.158 21.0391 34.9621 21.0391C34.7662 21.0391 34.5783 21.1169 34.4398 21.2554C34.3012 21.394 34.2234 21.5819 34.2234 21.7778V24.2638C34.2234 24.4597 34.3012 24.6476 34.4398 24.7861C34.5783 24.9247 34.7662 25.0025 34.9621 25.0025C35.158 25.0025 35.3459 24.9247 35.4844 24.7861C35.623 24.6476 35.7008 24.4597 35.7008 24.2638Z" fill="#F47521" stroke="#F47521" stroke-width="0.824557"></path><path d="M39.7822 29.8246C39.7822 30.0206 39.8601 30.2085 39.9986 30.347C40.1371 30.4855 40.325 30.5634 40.5209 30.5634H43.0072C43.2032 30.5634 43.391 30.4855 43.5296 30.347C43.6681 30.2085 43.7459 30.0206 43.7459 29.8246C43.7459 29.6287 43.6681 29.4408 43.5296 29.3023C43.391 29.1638 43.2032 29.0859 43.0072 29.0859H40.5209C40.325 29.0859 40.1371 29.1638 39.9986 29.3023C39.8601 29.4408 39.7822 29.6287 39.7822 29.8246Z" fill="#F47521" stroke="#F47521" stroke-width="0.824557"></path><path d="M54.2908 19.0214C54.3865 19.0202 54.481 18.9999 54.5687 18.9617C54.6565 18.9234 54.7357 18.8681 54.8017 18.7988C54.8678 18.7295 54.9193 18.6477 54.9533 18.5582C54.9872 18.4687 55.003 18.3734 54.9996 18.2777V11.4496C55.0029 11.3543 54.9871 11.2592 54.953 11.17C54.919 11.0808 54.8674 10.9994 54.8013 10.9305C54.7352 10.8616 54.656 10.8067 54.5683 10.769C54.4806 10.7313 54.3862 10.7115 54.2908 10.7109H47.1536C46.9574 10.7108 46.7691 10.7885 46.6301 10.927C46.4911 11.0655 46.4127 11.2534 46.4121 11.4496V14.1275H18.1565V11.4496C18.1559 11.2534 18.0775 11.0655 17.9385 10.927C17.7995 10.7885 17.6113 10.7108 17.4151 10.7109H10.2779C10.1824 10.7115 10.088 10.7313 10.0004 10.769C9.91268 10.8067 9.83345 10.8616 9.76736 10.9305C9.70128 10.9994 9.64968 11.0808 9.61562 11.17C9.58156 11.2592 9.56573 11.3543 9.56906 11.4496V18.2777C9.56564 18.3734 9.58139 18.4687 9.61536 18.5582C9.64933 18.6477 9.70085 18.7295 9.76688 18.7988C9.83292 18.8681 9.91214 18.9234 9.99989 18.9617C10.0876 18.9999 10.1821 19.0202 10.2779 19.0214H13.0779V45.9842H14.5553V19.0214H17.4151C17.6118 19.0204 17.8001 18.9416 17.939 18.8023C18.0779 18.663 18.1561 18.4744 18.1565 18.2777V15.6049H46.4121V18.2777C46.4125 18.4744 46.4907 18.663 46.6296 18.8023C46.7685 18.9416 46.9569 19.0204 47.1536 19.0214H50.0133V45.9842H47.1536C46.9569 45.9852 46.7685 46.064 46.6296 46.2033C46.4907 46.3426 46.4125 46.5312 46.4121 46.7279V49.4007H18.1565V46.7279C18.1561 46.5312 18.0779 46.3426 17.939 46.2033C17.8001 46.064 17.6118 45.9852 17.4151 45.9842H10.2779C10.1821 45.9854 10.0876 46.0057 9.99989 46.0439C9.91214 46.0822 9.83292 46.1376 9.76688 46.2068C9.70085 46.2761 9.64933 46.3579 9.61536 46.4474C9.58139 46.5369 9.56564 46.6323 9.56906 46.7279V53.556C9.56573 53.6514 9.58156 53.7465 9.61562 53.8356C9.64968 53.9248 9.70128 54.0062 9.76736 54.0751C9.83345 54.144 9.91268 54.1989 10.0004 54.2366C10.088 54.2743 10.1824 54.2941 10.2779 54.2947H17.4151C17.6113 54.2948 17.7995 54.2171 17.9385 54.0786C18.0775 53.9401 18.1559 53.7522 18.1565 53.556V50.8782H46.4121V53.556C46.4127 53.7522 46.4911 53.9401 46.6301 54.0786C46.7691 54.2171 46.9574 54.2948 47.1536 54.2947H54.2908C54.3862 54.2941 54.4806 54.2743 54.5683 54.2366C54.656 54.1989 54.7352 54.144 54.8013 54.0751C54.8674 54.0062 54.919 53.9248 54.953 53.8356C54.9871 53.7465 55.0029 53.6514 54.9996 53.556V46.7279C55.003 46.6323 54.9872 46.5369 54.9533 46.4474C54.9193 46.3579 54.8678 46.2761 54.8017 46.2068C54.7357 46.1376 54.6565 46.0822 54.5687 46.0439C54.481 46.0057 54.3865 45.9854 54.2908 45.9842H51.4907V19.0214H54.2908ZM16.6791 17.544H11.0465V12.1884H16.6791V17.544ZM16.6791 52.8173H11.0465V47.4616H16.6791V52.8173ZM53.5222 52.8173H47.8895V47.4616H53.5222V52.8173ZM47.8895 12.1884H53.5222V17.544H47.8895V12.1884Z" fill="#F47521" stroke="#F47521" stroke-width="0.824557"></path></svg>