<svg xmlns="http://www.w3.org/2000/svg" width="65" height="65" viewBox="0 0 65 65" fill="none"><path d="M49.3984 13.8555H14.6649C12.9141 13.8555 11.235 14.551 9.99698 15.789C8.75898 17.027 8.06348 18.7061 8.06348 20.4569V45.5422C8.06348 47.293 8.75898 48.9721 9.99698 50.2101C11.235 51.4481 12.9141 52.1436 14.6649 52.1436H49.3984C51.1492 52.1436 52.8283 51.4481 54.0663 50.2101C55.3043 48.9721 55.9998 47.293 55.9998 45.5422V20.4569C55.9998 18.7061 55.3043 17.027 54.0663 15.789C52.8283 14.551 51.1492 13.8555 49.3984 13.8555ZM14.6141 16.9023H49.3984C50.3412 16.9023 51.2453 17.2768 51.9119 17.9434C52.5785 18.61 52.953 19.5141 52.953 20.4569V24.4685H11.1103V20.4569C11.1103 19.5141 11.4848 18.61 12.1514 17.9434C12.818 17.2768 13.7221 16.9023 14.6649 16.9023H14.6141ZM49.3984 49.0968H14.6649C13.7221 49.0968 12.818 48.7223 12.1514 48.0557C11.4848 47.3891 11.1103 46.4849 11.1103 45.5422V27.4645H52.953V45.5422C52.953 46.4849 52.5785 47.3891 51.9119 48.0557C51.2453 48.7223 50.3412 49.0968 49.3984 49.0968Z" fill="#F47521" stroke="black" stroke-width="1.2"></path><path d="M15.8837 23.1014C17.2299 23.1014 18.3212 22.0102 18.3212 20.664C18.3212 19.3178 17.2299 18.2266 15.8837 18.2266C14.5376 18.2266 13.4463 19.3178 13.4463 20.664C13.4463 22.0102 14.5376 23.1014 15.8837 23.1014Z" fill="#F47521" stroke="black" stroke-width="1.2"></path><path d="M22.1804 23.1014C23.5265 23.1014 24.6178 22.0102 24.6178 20.664C24.6178 19.3178 23.5265 18.2266 22.1804 18.2266C20.8342 18.2266 19.7429 19.3178 19.7429 20.664C19.7429 22.0102 20.8342 23.1014 22.1804 23.1014Z" fill="#F47521" stroke="black" stroke-width="1.2"></path><path d="M28.7817 23.1014C30.1278 23.1014 31.2191 22.0102 31.2191 20.664C31.2191 19.3178 30.1278 18.2266 28.7817 18.2266C27.4355 18.2266 26.3442 19.3178 26.3442 20.664C26.3442 22.0102 27.4355 23.1014 28.7817 23.1014Z" fill="#F47521" stroke="black" stroke-width="1.2"></path><path d="M22.5355 30.9148C22.3988 30.7648 22.2339 30.6431 22.0502 30.5568C21.8665 30.4705 21.6675 30.4213 21.4648 30.4118C21.262 30.4024 21.0594 30.433 20.8684 30.5019C20.6775 30.5708 20.502 30.6766 20.352 30.8133C20.2019 30.95 20.0803 31.1149 19.994 31.2986C19.9077 31.4823 19.8584 31.6812 19.849 31.884C19.8395 32.0868 19.8701 32.2894 19.939 32.4803C20.0079 32.6713 20.1137 32.8468 20.2504 32.9968L24.9222 38.0748L20.2504 43.1528C19.9743 43.4491 19.8272 43.8429 19.8415 44.2477C19.8558 44.6524 20.0303 45.0349 20.3266 45.311C20.6229 45.5871 21.0167 45.7341 21.4214 45.7199C21.8262 45.7056 22.2086 45.5311 22.4847 45.2348L28.1213 39.0904C28.3855 38.8082 28.5325 38.436 28.5325 38.0494C28.5325 37.6628 28.3855 37.2907 28.1213 37.0084L22.5355 30.9148Z" fill="#F47521" stroke="black" stroke-width="1.2"></path><path d="M43.5077 42.6016H31.0666C30.6626 42.6016 30.2751 42.7621 29.9894 43.0478C29.7037 43.3334 29.5432 43.7209 29.5432 44.125C29.5432 44.529 29.7037 44.9165 29.9894 45.2022C30.2751 45.4879 30.6626 45.6484 31.0666 45.6484H43.5077C43.9117 45.6484 44.2992 45.4879 44.5849 45.2022C44.8706 44.9165 45.0311 44.529 45.0311 44.125C45.0311 43.7209 44.8706 43.3334 44.5849 43.0478C44.2992 42.7621 43.9117 42.6016 43.5077 42.6016Z" fill="#F47521" stroke="black" stroke-width="1.2"></path></svg>