<svg xmlns="http://www.w3.org/2000/svg" width="120" height="121" viewBox="0 0 120 121" fill="none"><rect y="0.5" width="120" height="120" rx="60" fill="#B0D8F4"></rect><path d="M72.958 60.2193L50.2421 64.072C49.6593 64.1186 49.146 64.4728 48.8949 65.0015C48.6441 65.5299 48.6939 66.1519 49.0255 66.634C49.3572 67.1157 49.9203 67.3835 50.503 67.3369H50.7804L73.4964 63.4354C74.0788 63.3392 74.5658 62.9391 74.774 62.386C74.9822 61.8329 74.8796 61.2104 74.505 60.7535C74.1305 60.2966 73.5407 60.0743 72.958 60.1705L72.958 60.2193Z" fill="black" stroke="#B0D8F4" stroke-width="0.5"></path><path d="M58.0684 59.6143C58.8023 60.1215 59.6719 60.3945 60.5633 60.3978C61.9574 60.4025 63.266 59.7262 64.0694 58.5856C64.7326 57.6565 64.9987 56.5009 64.8087 55.375C64.6187 54.2487 63.9882 53.2448 63.0567 52.5853C62.1256 51.9258 60.9698 51.6648 59.8458 51.8602C58.7331 52.0482 57.7396 52.668 57.08 53.5848C56.4208 54.5016 56.1489 55.6414 56.3233 56.7575C56.5002 57.905 57.1285 58.9336 58.0684 59.6143H58.0684ZM59.6992 55.5004C59.859 55.2777 60.0985 55.1258 60.3679 55.0758H60.5473C60.7639 55.0758 60.975 55.1443 61.1505 55.2719C61.6073 55.6053 61.7158 56.2422 61.3951 56.7083C61.2375 56.9364 60.9943 57.0912 60.7209 57.1375C60.4479 57.1834 60.1676 57.1171 59.9438 56.9531C59.7145 56.8001 59.5605 56.557 59.5197 56.2841C59.4735 56.0068 59.5445 55.723 59.7156 55.5003L59.6992 55.5004Z" fill="black" stroke="#B0D8F4" stroke-width="0.5"></path><path d="M65.6516 67.9065C64.7215 67.2447 63.5669 66.9795 62.4418 67.1693C61.3167 67.3592 60.3123 67.9881 59.6506 68.9187C58.9848 69.8672 58.7213 71.0409 58.9168 72.1837C59.0955 73.1809 59.6175 74.0847 60.3917 74.7377C61.1659 75.3906 62.1441 75.7517 63.1567 75.7586C64.5498 75.7605 65.8572 75.0849 66.6628 73.9465C67.3344 73.0133 67.6052 71.8498 67.4152 70.7155C67.2256 69.5811 66.5904 68.5696 65.6516 67.9064L65.6516 67.9065ZM64.0208 72.004C63.8632 72.2321 63.6201 72.387 63.3467 72.4329C63.0733 72.4792 62.793 72.4125 62.5695 72.2489C62.3449 72.0937 62.1968 71.8506 62.1618 71.5795C62.1098 71.308 62.1713 71.0275 62.3315 70.8023C62.4916 70.5774 62.7366 70.4277 63.0096 70.388H63.1727C63.3896 70.388 63.6008 70.4565 63.7762 70.5836C63.9957 70.7411 64.1435 70.9794 64.1864 71.2461C64.229 71.5128 64.1639 71.7858 64.0044 72.004L64.0208 72.004Z" fill="black" stroke="#B0D8F4" stroke-width="0.5"></path><path d="M84.2754 59.2735L80.1821 43.7326C79.8625 42.5494 79.1399 41.5152 78.1396 40.8087C77.139 40.1022 75.9232 39.768 74.7026 39.8638L63.6787 40.7129L63.2383 39.0804L63.2387 39.0801C63.0064 38.1505 62.4538 37.3325 61.6782 36.7709C60.9025 36.2094 59.9531 35.9401 58.9987 36.0112L48.3503 36.8438H48.35C46.9558 36.9367 45.6785 37.6568 44.8766 38.8028L36.4454 50.7029C35.6898 51.7242 35.3727 53.0055 35.5649 54.2614C35.8095 55.4763 36.5248 56.5447 37.5546 57.2327L42.0879 60.4976L41.3541 61.5259C40.4001 62.8945 40.0273 64.5864 40.3178 66.2298C40.6079 67.8735 41.5379 69.3343 42.9033 70.2923L61.9505 83.8417C63.0047 84.5872 64.2642 84.9863 65.5546 84.9844C65.8858 85.0052 66.2182 85.0052 66.5494 84.9844C68.1915 84.7093 69.654 83.7859 70.6099 82.4213L83.2646 64.579C84.3981 63.0599 84.7709 61.1035 84.2759 59.2735H84.2754ZM44.0283 57.886L39.4294 54.621H39.4298C39.1116 54.4123 38.8936 54.0814 38.8262 53.7068C38.764 53.3169 38.8579 52.9183 39.0872 52.5969L47.5344 40.6968C47.7873 40.3495 48.1823 40.1338 48.6108 40.109L59.2274 39.2764C59.5834 39.2793 59.8983 39.5093 60.0101 39.8478L60.3526 40.9089L58.7218 41.0393C56.8701 41.1745 55.1735 42.1252 54.0906 43.6352L44.0283 57.886ZM80.6719 62.6037L68.0004 80.4627C67.5498 81.1106 66.8549 81.5464 66.0763 81.671C65.2908 81.8175 64.4794 81.6408 63.8257 81.1813L44.7952 67.6478C44.1499 67.1824 43.7134 66.4817 43.5791 65.6972C43.4448 64.9123 43.6238 64.1063 44.0778 63.4526L56.765 45.6094C57.2878 44.8807 58.1057 44.4205 58.9994 44.3526L62.6034 44.075L74.9804 43.1119H75.1435C75.5817 43.1174 76.0062 43.265 76.353 43.5331C76.7003 43.801 76.9511 44.1745 77.0676 44.5975L81.1609 60.1226C81.3775 60.9811 81.198 61.8917 80.6716 62.6038L80.6719 62.6037Z" fill="black" stroke="#B0D8F4" stroke-width="0.5"></path></svg>