<svg xmlns="http://www.w3.org/2000/svg" width="65" height="65" viewBox="0 0 65 65" fill="none"><path fill-rule="evenodd" clip-rule="evenodd" d="M42.337 29.7211C35.1441 29.7211 29.2315 35.3082 28.711 42.3705H11.9238C11.3051 42.3705 10.8017 41.8694 10.8017 41.2537V21.5905H23.123L23.1156 28.2093C23.1156 29.3495 24.0435 30.2771 25.1837 30.2771C25.7942 30.2771 26.3704 30.0095 26.764 29.543L28.3721 27.6385L29.0494 29.0856C29.388 29.8094 30.1233 30.2771 30.9225 30.2771H30.9969C32.1371 30.2771 33.0649 29.3495 33.0649 28.2093V21.5905H45.3788V30.0623C44.4003 29.839 43.3822 29.7211 42.337 29.7211ZM11.9238 44.1719H28.6962C29.1057 51.3408 35.0675 57.0475 42.337 57.0475C49.871 57.0475 56.0003 50.9182 56.0003 43.3843C56.0003 37.5549 52.3307 32.5664 47.1802 30.6076V20.6866L47.0644 20.2447L41.5322 10.4153C41.0167 9.49652 40.0431 8.92578 38.9914 8.92578H17.1891C16.1373 8.92578 15.1637 9.49652 14.649 10.4141L9.1161 20.2447L9.00024 20.6866V41.2537C9.00024 42.8628 10.3119 44.1719 11.9238 44.1719ZM11.4396 19.7891L13.9415 15.3439H23.8523L23.2319 19.7891H11.4396ZM24.9171 21.5905V28.2093C24.9168 28.435 25.242 28.5541 25.3875 28.3809L27.9034 25.4013L29.4073 25.6006L30.681 28.3221C30.7247 28.4154 30.8194 28.4757 30.9225 28.4757H30.9969C31.1439 28.4757 31.2635 28.3561 31.2635 28.2093V21.5905H24.9171ZM31.1297 19.7891H25.0509L26.3156 10.7272H29.8652L31.1297 19.7891ZM32.9406 19.7891H44.7409L42.239 15.3439H32.3239L32.9406 19.7891ZM41.2251 13.5425H32.074L31.6834 10.7272H38.9914C39.3925 10.7272 39.7639 10.9453 39.9617 11.2977L41.2251 13.5425ZM17.1891 10.7272H24.4966L24.1037 13.5425H14.9554L16.2195 11.2964C16.4165 10.9453 16.788 10.7272 17.1891 10.7272ZM42.337 31.5225C35.7963 31.5225 30.4752 36.8436 30.4752 43.3843C30.4752 49.925 35.7963 55.2461 42.337 55.2461C48.8778 55.2461 54.1988 49.925 54.1988 43.3843C54.1988 36.8436 48.8778 31.5225 42.337 31.5225ZM43.2375 49.8848C43.31 49.8892 43.3823 49.8914 43.4541 49.8914C45.2121 49.8914 46.7547 48.5978 47.0143 46.808C47.2988 44.8439 45.9324 43.0144 43.9781 42.7311L40.9639 42.2604C40.4886 42.1916 40.0687 41.9418 39.7814 41.557C39.4939 41.1722 39.3738 40.6985 39.4427 40.2233C39.5115 39.748 39.7613 39.3281 40.1461 39.0408C40.5309 38.7533 41.0046 38.6322 41.4798 38.7021L45.4679 39.2801L45.7263 37.4973L43.2375 37.1365V35.2512H41.436V36.888C40.5874 36.8358 39.7569 37.083 39.0682 37.5973C38.2979 38.1725 37.7976 39.0134 37.6598 39.9649C37.3751 41.9289 38.7412 43.7585 40.6957 44.0418L43.71 44.5125C44.6909 44.6547 45.3734 45.5685 45.2314 46.5496C45.0892 47.5303 44.1729 48.2116 43.1943 48.0711L39.2062 47.4931L38.9478 49.2759L41.436 49.6365V51.5205H43.2375V49.8848Z" fill="#F47521"></path><path d="M28.711 42.3705V42.5424H28.8708L28.8825 42.3831L28.711 42.3705ZM10.8017 21.5905V21.4186H10.6297V21.5905H10.8017ZM23.123 21.5905L23.295 21.5907L23.2952 21.4186H23.123V21.5905ZM23.1156 28.2093L22.9437 28.2091V28.2093H23.1156ZM26.764 29.543L26.6326 29.4321L26.6326 29.4321L26.764 29.543ZM28.3721 27.6385L28.5279 27.5657L28.414 27.3224L28.2408 27.5276L28.3721 27.6385ZM29.0494 29.0856L29.2052 29.0128L29.2052 29.0127L29.0494 29.0856ZM33.0649 21.5905V21.4186H32.893V21.5905H33.0649ZM45.3788 21.5905H45.5508V21.4186H45.3788V21.5905ZM45.3788 30.0623L45.3405 30.23L45.5508 30.2779V30.0623H45.3788ZM28.6962 44.1719L28.8679 44.1621L28.8587 44H28.6962V44.1719ZM47.1802 30.6076H47.0083V30.7262L47.1191 30.7683L47.1802 30.6076ZM47.1802 20.6866H47.3522V20.6644L47.3466 20.6429L47.1802 20.6866ZM47.0644 20.2447L47.2307 20.2011L47.2251 20.1797L47.2142 20.1604L47.0644 20.2447ZM41.5322 10.4153L41.3822 10.4995L41.3823 10.4997L41.5322 10.4153ZM14.649 10.4141L14.7989 10.4984L14.799 10.4982L14.649 10.4141ZM9.1161 20.2447L8.96625 20.1604L8.95539 20.1797L8.94977 20.2011L9.1161 20.2447ZM9.00024 20.6866L8.83392 20.6429L8.82829 20.6644V20.6866H9.00024ZM13.9415 15.3439V15.1719H13.8409L13.7916 15.2596L13.9415 15.3439ZM11.4396 19.7891L11.2897 19.7048L11.1455 19.9611H11.4396V19.7891ZM23.8523 15.3439L24.0226 15.3677L24.0499 15.1719H23.8523V15.3439ZM23.2319 19.7891V19.9611H23.3815L23.4022 19.8129L23.2319 19.7891ZM24.9171 28.2093L25.089 28.2095V28.2093H24.9171ZM24.9171 21.5905V21.4186H24.7451V21.5905H24.9171ZM25.3875 28.3809L25.2561 28.27L25.2559 28.2703L25.3875 28.3809ZM27.9034 25.4013L27.926 25.2309L27.8328 25.2185L27.7721 25.2904L27.9034 25.4013ZM29.4073 25.6006L29.563 25.5278L29.5232 25.4425L29.4299 25.4302L29.4073 25.6006ZM30.681 28.3221L30.5252 28.395L30.5253 28.3951L30.681 28.3221ZM31.2635 21.5905H31.4355V21.4186H31.2635V21.5905ZM25.0509 19.7891L24.8806 19.7653L24.8533 19.9611H25.0509V19.7891ZM31.1297 19.7891V19.9611H31.3273L31.3 19.7654L31.1297 19.7891ZM26.3156 10.7272V10.5553H26.166L26.1453 10.7034L26.3156 10.7272ZM29.8652 10.7272L30.0355 10.7034L30.0148 10.5553H29.8652V10.7272ZM44.7409 19.7891V19.9611H45.035L44.8907 19.7048L44.7409 19.7891ZM32.9406 19.7891L32.7703 19.8127L32.7908 19.9611H32.9406V19.7891ZM42.239 15.3439L42.3889 15.2596L42.3396 15.1719H42.239V15.3439ZM32.3239 15.3439V15.1719H32.1264L32.1536 15.3675L32.3239 15.3439ZM32.074 13.5425L31.9037 13.5661L31.9242 13.7144H32.074V13.5425ZM41.2251 13.5425V13.7144H41.5192L41.375 13.4581L41.2251 13.5425ZM31.6834 10.7272V10.5553H31.486L31.5131 10.7508L31.6834 10.7272ZM39.9617 11.2977L39.8118 11.3819L39.8119 11.382L39.9617 11.2977ZM24.4966 10.7272L24.6669 10.751L24.6942 10.5553H24.4966V10.7272ZM24.1037 13.5425V13.7144H24.2533L24.274 13.5662L24.1037 13.5425ZM14.9554 13.5425L14.8055 13.4581L14.6613 13.7144H14.9554V13.5425ZM16.2195 11.2964L16.3694 11.3808L16.3695 11.3806L16.2195 11.2964ZM43.2375 49.8848L43.2479 49.7131L43.0655 49.7021V49.8848H43.2375ZM47.0143 46.808L47.1844 46.8327L47.1844 46.8326L47.0143 46.808ZM43.9781 42.7311L43.9516 42.9011L43.9535 42.9013L43.9781 42.7311ZM40.9639 42.2604L40.9904 42.0905L40.9885 42.0903L40.9639 42.2604ZM39.7814 41.557L39.9192 41.4541L39.9192 41.4541L39.7814 41.557ZM39.4427 40.2233L39.2725 40.1986L39.4427 40.2233ZM40.1461 39.0408L40.249 39.1786L40.249 39.1786L40.1461 39.0408ZM41.4798 38.7021L41.4548 38.8722L41.4552 38.8722L41.4798 38.7021ZM45.4679 39.2801L45.4433 39.4503L45.6134 39.4749L45.6381 39.3048L45.4679 39.2801ZM45.7263 37.4973L45.8965 37.5219L45.9211 37.3518L45.7509 37.3271L45.7263 37.4973ZM43.2375 37.1365H43.0655V37.2854L43.2128 37.3067L43.2375 37.1365ZM43.2375 35.2512H43.4094V35.0793H43.2375V35.2512ZM41.436 35.2512V35.0793H41.2641V35.2512H41.436ZM41.436 36.888L41.4255 37.0597L41.608 37.0709V36.888H41.436ZM39.0682 37.5973L39.1711 37.7351L39.0682 37.5973ZM37.6598 39.9649L37.83 39.9896L37.83 39.9896L37.6598 39.9649ZM40.6957 44.0418L40.7222 43.8718L40.7204 43.8716L40.6957 44.0418ZM43.71 44.5125L43.6835 44.6824L43.6853 44.6826L43.71 44.5125ZM45.2314 46.5496L45.4016 46.5743L45.4016 46.5742L45.2314 46.5496ZM43.1943 48.0711L43.1696 48.2413L43.1699 48.2413L43.1943 48.0711ZM39.2062 47.4931L39.2308 47.3229L39.0607 47.2982L39.036 47.4684L39.2062 47.4931ZM38.9478 49.2759L38.7776 49.2512L38.753 49.4214L38.9232 49.4461L38.9478 49.2759ZM41.436 49.6365H41.608V49.4877L41.4607 49.4663L41.436 49.6365ZM41.436 51.5205H41.2641V51.6924H41.436V51.5205ZM43.2375 51.5205V51.6924H43.4094V51.5205H43.2375ZM28.8825 42.3831C29.3964 35.4099 35.2349 29.893 42.337 29.893V29.5491C35.0533 29.5491 29.0665 35.2064 28.5395 42.3579L28.8825 42.3831ZM11.9238 42.5424H28.711V42.1985H11.9238V42.5424ZM10.6297 41.2537C10.6297 41.9651 11.2108 42.5424 11.9238 42.5424V42.1985C11.3993 42.1985 10.9736 41.7737 10.9736 41.2537H10.6297ZM10.6297 21.5905V41.2537H10.9736V21.5905H10.6297ZM23.123 21.4186H10.8017V21.7625H23.123V21.4186ZM23.2876 28.2095L23.295 21.5907L22.9511 21.5903L22.9437 28.2091L23.2876 28.2095ZM25.1837 30.1052C24.1384 30.1052 23.2876 29.2545 23.2876 28.2093H22.9437C22.9437 29.4445 23.9486 30.4491 25.1837 30.4491V30.1052ZM26.6326 29.4321C26.2717 29.8598 25.7435 30.1052 25.1837 30.1052V30.4491C25.8448 30.4491 26.4691 30.1591 26.8954 29.6539L26.6326 29.4321ZM28.2408 27.5276L26.6326 29.4321L26.8954 29.6539L28.5035 27.7495L28.2408 27.5276ZM29.2052 29.0127L28.5279 27.5657L28.2164 27.7114L28.8937 29.1585L29.2052 29.0127ZM30.9225 30.1052C30.19 30.1052 29.5154 29.6761 29.2052 29.0128L28.8937 29.1585C29.2605 29.9428 30.0566 30.4491 30.9225 30.4491V30.1052ZM30.9969 30.1052H30.9225V30.4491H30.9969V30.1052ZM32.893 28.2093C32.893 29.2545 32.0421 30.1052 30.9969 30.1052V30.4491C32.232 30.4491 33.2369 29.4445 33.2369 28.2093H32.893ZM32.893 21.5905V28.2093H33.2369V21.5905H32.893ZM45.3788 21.4186H33.0649V21.7625H45.3788V21.4186ZM45.5508 30.0623V21.5905H45.2069V30.0623H45.5508ZM42.337 29.893C43.3692 29.893 44.3745 30.0095 45.3405 30.23L45.4171 29.8947C44.4261 29.6685 43.3952 29.5491 42.337 29.5491V29.893ZM28.6962 44H11.9238V44.3439H28.6962V44ZM42.337 56.8756C35.1592 56.8756 29.2722 51.2405 28.8679 44.1621L28.5246 44.1817C28.9392 51.441 34.9757 57.2195 42.337 57.2195V56.8756ZM55.8283 43.3843C55.8283 50.8232 49.776 56.8756 42.337 56.8756V57.2195C49.9659 57.2195 56.1722 51.0132 56.1722 43.3843H55.8283ZM47.1191 30.7683C52.2052 32.7027 55.8283 37.6288 55.8283 43.3843H56.1722C56.1722 37.481 52.4562 32.4302 47.2414 30.4469L47.1191 30.7683ZM47.0083 20.6866V30.6076H47.3522V20.6866H47.0083ZM46.898 20.2884L47.0139 20.7302L47.3466 20.6429L47.2307 20.2011L46.898 20.2884ZM41.3823 10.4997L46.9145 20.3291L47.2142 20.1604L41.682 10.331L41.3823 10.4997ZM38.9914 9.09773C39.9808 9.09773 40.8971 9.63478 41.3822 10.4995L41.6821 10.3312C41.1363 9.35826 40.1055 8.75383 38.9914 8.75383V9.09773ZM17.1891 9.09773H38.9914V8.75383H17.1891V9.09773ZM14.799 10.4982C15.2833 9.63482 16.1996 9.09773 17.1891 9.09773V8.75383C16.0751 8.75383 15.0442 9.35821 14.4991 10.3299L14.799 10.4982ZM9.26595 20.3291L14.7989 10.4984L14.4992 10.3297L8.96625 20.1604L9.26595 20.3291ZM9.16657 20.7302L9.28243 20.2884L8.94977 20.2011L8.83392 20.6429L9.16657 20.7302ZM9.17219 41.2537V20.6866H8.82829V41.2537H9.17219ZM11.9238 44C10.4065 44 9.17219 42.7676 9.17219 41.2537H8.82829C8.82829 42.9581 10.2172 44.3439 11.9238 44.3439V44ZM13.7916 15.2596L11.2897 19.7048L11.5894 19.8735L14.0913 15.4282L13.7916 15.2596ZM23.8523 15.1719H13.9415V15.5158H23.8523V15.1719ZM23.4022 19.8129L24.0226 15.3677L23.682 15.3201L23.0616 19.7653L23.4022 19.8129ZM11.4396 19.9611H23.2319V19.6172H11.4396V19.9611ZM25.089 28.2093V21.5905H24.7451V28.2093H25.089ZM25.2559 28.2703C25.2422 28.2866 25.2085 28.3021 25.1567 28.2832C25.1047 28.2642 25.089 28.2305 25.089 28.2095L24.7451 28.2091C24.7449 28.4137 24.8916 28.5525 25.0386 28.6062C25.1857 28.6599 25.3874 28.6484 25.5192 28.4916L25.2559 28.2703ZM27.7721 25.2904L25.2561 28.27L25.5189 28.4919L28.0348 25.5123L27.7721 25.2904ZM29.4299 25.4302L27.926 25.2309L27.8808 25.5718L29.3847 25.7711L29.4299 25.4302ZM30.8367 28.2492L29.563 25.5278L29.2516 25.6735L30.5252 28.395L30.8367 28.2492ZM30.9225 28.3037C30.8862 28.3037 30.8521 28.2821 30.8366 28.2491L30.5253 28.3951C30.5973 28.5487 30.7527 28.6476 30.9225 28.6476V28.3037ZM30.9969 28.3037H30.9225V28.6476H30.9969V28.3037ZM31.0916 28.2093C31.0916 28.261 31.049 28.3037 30.9969 28.3037V28.6476C31.2387 28.6476 31.4355 28.4511 31.4355 28.2093H31.0916ZM31.0916 21.5905V28.2093H31.4355V21.5905H31.0916ZM24.9171 21.7625H31.2635V21.4186H24.9171V21.7625ZM25.0509 19.9611H31.1297V19.6172H25.0509V19.9611ZM26.1453 10.7034L24.8806 19.7653L25.2212 19.8129L26.4859 10.751L26.1453 10.7034ZM29.8652 10.5553H26.3156V10.8992H29.8652V10.5553ZM31.3 19.7654L30.0355 10.7034L29.6949 10.751L30.9594 19.8129L31.3 19.7654ZM44.7409 19.6172H32.9406V19.9611H44.7409V19.6172ZM42.0892 15.4282L44.591 19.8735L44.8907 19.7048L42.3889 15.2596L42.0892 15.4282ZM32.3239 15.5158H42.239V15.1719H32.3239V15.5158ZM33.1109 19.7655L32.4942 15.3203L32.1536 15.3675L32.7703 19.8127L33.1109 19.7655ZM32.074 13.7144H41.2251V13.3705H32.074V13.7144ZM31.5131 10.7508L31.9037 13.5661L32.2443 13.5188L31.8537 10.7036L31.5131 10.7508ZM38.9914 10.5553H31.6834V10.8992H38.9914V10.5553ZM40.1117 11.2135C39.8837 10.8074 39.4551 10.5553 38.9914 10.5553V10.8992C39.3299 10.8992 39.6442 11.0833 39.8118 11.3819L40.1117 11.2135ZM41.375 13.4581L40.1116 11.2134L39.8119 11.382L41.0753 13.6268L41.375 13.4581ZM24.4966 10.5553H17.1891V10.8992H24.4966V10.5553ZM24.274 13.5662L24.6669 10.751L24.3263 10.7034L23.9334 13.5187L24.274 13.5662ZM14.9554 13.7144H24.1037V13.3705H14.9554V13.7144ZM16.0697 11.2121L14.8055 13.4581L15.1052 13.6268L16.3694 11.3808L16.0697 11.2121ZM17.1891 10.5553C16.7255 10.5553 16.2969 10.8072 16.0696 11.2123L16.3695 11.3806C16.5362 11.0834 16.8505 10.8992 17.1891 10.8992V10.5553ZM30.6472 43.3843C30.6472 36.9385 35.8913 31.6944 42.337 31.6944V31.3505C35.7014 31.3505 30.3033 36.7486 30.3033 43.3843H30.6472ZM42.337 55.0741C35.8913 55.0741 30.6472 49.83 30.6472 43.3843H30.3033C30.3033 50.02 35.7014 55.418 42.337 55.418V55.0741ZM54.0269 43.3843C54.0269 49.83 48.7828 55.0741 42.337 55.0741V55.418C48.9727 55.418 54.3708 50.02 54.3708 43.3843H54.0269ZM42.337 31.6944C48.7828 31.6944 54.0269 36.9385 54.0269 43.3843H54.3708C54.3708 36.7486 48.9727 31.3505 42.337 31.3505V31.6944ZM43.4541 49.7194C43.3858 49.7194 43.317 49.7173 43.2479 49.7131L43.2271 50.0564C43.3031 50.061 43.3788 50.0633 43.4541 50.0633V49.7194ZM46.8441 46.7833C46.597 48.4873 45.128 49.7194 43.4541 49.7194V50.0633C45.2962 50.0633 46.9124 48.7084 47.1844 46.8327L46.8441 46.7833ZM43.9535 42.9013C45.8134 43.1709 47.115 44.913 46.8441 46.7833L47.1844 46.8326C47.4825 44.7749 46.0513 42.8579 44.0028 42.561L43.9535 42.9013ZM40.9373 42.4303L43.9516 42.901L44.0047 42.5613L40.9904 42.0905L40.9373 42.4303ZM39.6436 41.6599C39.9582 42.0812 40.4188 42.3552 40.9392 42.4306L40.9885 42.0903C40.5584 42.0279 40.1792 41.8023 39.9192 41.4541L39.6436 41.6599ZM39.2725 40.1986C39.1971 40.7189 39.3288 41.2386 39.6437 41.6599L39.9192 41.4541C39.659 41.1059 39.5505 40.6781 39.6128 40.2479L39.2725 40.1986ZM40.0432 38.9031C39.6219 39.2176 39.3479 39.6782 39.2725 40.1986L39.6128 40.2479C39.6752 39.8178 39.9008 39.4386 40.249 39.1786L40.0432 38.9031ZM41.5048 38.5319C40.984 38.4554 40.4643 38.5884 40.0432 38.9031L40.249 39.1786C40.5974 38.9183 41.0251 38.809 41.4548 38.8722L41.5048 38.5319ZM45.4926 39.1099L41.5045 38.5319L41.4552 38.8722L45.4433 39.4503L45.4926 39.1099ZM45.5561 37.4726L45.2978 39.2554L45.6381 39.3048L45.8965 37.5219L45.5561 37.4726ZM43.2128 37.3067L45.7016 37.6674L45.7509 37.3271L43.2621 36.9664L43.2128 37.3067ZM43.0655 35.2512V37.1365H43.4094V35.2512H43.0655ZM41.436 35.4232H43.2375V35.0793H41.436V35.4232ZM41.608 36.888V35.2512H41.2641V36.888H41.608ZM39.1711 37.7351C39.8273 37.245 40.6176 37.01 41.4255 37.0597L41.4466 36.7164C40.5572 36.6617 39.6865 36.9209 38.9653 37.4595L39.1711 37.7351ZM37.83 39.9896C37.9612 39.0833 38.4373 38.283 39.1711 37.7351L38.9653 37.4595C38.1585 38.0621 37.6339 38.9436 37.4897 39.9403L37.83 39.9896ZM40.7204 43.8716C38.8602 43.602 37.5588 41.8599 37.83 39.9896L37.4897 39.9403C37.1913 41.998 38.6223 43.915 40.6711 44.2119L40.7204 43.8716ZM43.7365 44.3426L40.7222 43.8719L40.6692 44.2116L43.6835 44.6824L43.7365 44.3426ZM45.4016 46.5742C45.5572 45.4992 44.8095 44.4982 43.7347 44.3423L43.6853 44.6826C44.5722 44.8113 45.1897 45.6378 45.0613 46.525L45.4016 46.5742ZM43.1699 48.2413C44.242 48.3952 45.2457 47.6492 45.4016 46.5743L45.0613 46.5249C44.9327 47.4113 44.1038 48.0279 43.2187 47.9009L43.1699 48.2413ZM39.1815 47.6632L43.1696 48.2413L43.219 47.9009L39.2308 47.3229L39.1815 47.6632ZM39.118 49.3005L39.3763 47.5177L39.036 47.4684L38.7776 49.2512L39.118 49.3005ZM41.4607 49.4663L38.9725 49.1057L38.9232 49.4461L41.4114 49.8067L41.4607 49.4663ZM41.2641 49.6365V51.5205H41.608V49.6365H41.2641ZM41.436 51.6924H43.2375V51.3485H41.436V51.6924ZM43.4094 51.5205V49.8848H43.0655V51.5205H43.4094Z" fill="#F47521"></path></svg>