<svg xmlns="http://www.w3.org/2000/svg" width="65" height="65" viewBox="0 0 65 65" fill="none"><path d="M57.5409 55.3255L47.7259 45.4781L50.074 43.1297C50.6409 42.5567 50.9589 41.7831 50.9589 40.977C50.9589 40.1709 50.6409 39.3974 50.074 38.8244L47.6633 36.4134C49.4684 32.0066 49.6913 27.1105 48.2942 22.5579C46.8971 18.0053 43.9663 14.0773 40.0002 11.4421C36.034 8.80681 31.2776 7.62702 26.5399 8.10336C21.8022 8.57971 17.3757 10.6828 14.0134 14.0549C10.6512 17.4269 8.56074 21.8598 8.09768 26.5994C7.63462 31.3391 8.82753 36.0928 11.4735 40.052C14.1195 44.0112 18.0552 46.9315 22.6111 48.316C27.167 49.7006 32.0619 49.464 36.463 47.6464L38.8737 50.0574C39.4446 50.6281 40.2189 50.9487 41.0261 50.9487C41.8334 50.9487 42.6076 50.6281 43.1785 50.0574L45.5266 47.709L55.3259 57.5408C55.4713 57.6864 55.6439 57.8019 55.8339 57.8807C56.024 57.9594 56.2277 58 56.4334 58C56.6391 58 56.8428 57.9594 57.0328 57.8807C57.2229 57.8019 57.3955 57.6864 57.5409 57.5408C57.6864 57.3954 57.8019 57.2228 57.8807 57.0327C57.9594 56.8427 58 56.6389 58 56.4332C58 56.2275 57.9594 56.0237 57.8807 55.8337C57.8019 55.6436 57.6864 55.4709 57.5409 55.3255ZM16.1678 40.9535C13.7176 38.5021 12.0492 35.3792 11.3735 31.9795C10.6979 28.5799 11.0453 25.0562 12.3719 21.854C13.6984 18.6517 15.9446 15.9148 18.8263 13.9893C21.7081 12.0637 25.096 11.0359 28.5617 11.0359C32.0275 11.0359 35.4154 12.0637 38.2971 13.9893C41.1789 15.9148 43.425 18.6517 44.7516 21.854C46.0782 25.0562 46.4256 28.5799 45.7499 31.9795C45.0743 35.3792 43.4059 38.5021 40.9557 40.9535C37.666 44.2361 33.2087 46.0795 28.5617 46.0795C23.9148 46.0795 19.4575 44.2361 16.1678 40.9535ZM41.0261 47.7795L39.3903 46.1434C42.1472 44.4612 44.4629 42.1452 46.1449 39.388L47.7807 41.024L41.0261 47.7795ZM40.893 26.5502C41.0066 26.9488 40.9575 27.3762 40.7565 27.7386C40.5555 28.1011 40.219 28.369 39.8208 28.4837C39.6806 28.5231 39.5359 28.5442 39.3903 28.5463C39.0506 28.5458 38.7202 28.4348 38.4491 28.2301C38.1781 28.0253 37.9809 27.7379 37.8875 27.4113L36.6978 23.239L30.6085 33.7362C30.4997 33.9355 30.3488 34.1088 30.1663 34.244C29.9839 34.3791 29.7742 34.473 29.5518 34.519C29.3251 34.5616 29.0917 34.5534 28.8685 34.4953C28.6452 34.4371 28.4376 34.3302 28.2604 34.1824L22.2415 29.4857L17.7332 35.1218C17.5858 35.3059 17.3987 35.4543 17.186 35.556C16.9732 35.6576 16.7402 35.7099 16.5044 35.7089C16.2095 35.7087 15.9207 35.6252 15.6713 35.4681C15.4218 35.311 15.2217 35.0866 15.0941 34.8208C14.9665 34.5549 14.9166 34.2585 14.9501 33.9655C14.9836 33.6725 15.0991 33.395 15.2834 33.1648L20.7622 26.3154C21.0205 25.9928 21.3958 25.7854 21.8064 25.7385C22.2169 25.6916 22.6294 25.8089 22.9538 26.0649L28.7848 30.6051L34.0367 21.5873L29.6614 22.832C29.4636 22.888 29.2566 22.9045 29.0524 22.8805C28.8481 22.8566 28.6506 22.7926 28.4711 22.6923C28.2916 22.592 28.1336 22.4573 28.0061 22.2959C27.8786 22.1345 27.7842 21.9496 27.7282 21.7517C27.6722 21.5538 27.6557 21.3469 27.6796 21.1426C27.7036 20.9383 27.7675 20.7408 27.8678 20.5613C27.9681 20.3817 28.1028 20.2237 28.2642 20.0962C28.4255 19.9687 28.6104 19.8743 28.8083 19.8182L36.7056 17.5716C36.9035 17.5142 37.1107 17.4964 37.3155 17.5193C37.5202 17.5421 37.7185 17.6052 37.8988 17.7048C38.0791 17.8044 38.238 17.9387 38.3664 18.0999C38.4947 18.261 38.59 18.446 38.6467 18.6441L40.893 26.5502Z" fill="#F47521" stroke="black" stroke-width="1.19048"></path></svg>