<svg xmlns="http://www.w3.org/2000/svg" width="120" height="121" viewBox="0 0 120 121" fill="none"><rect y="0.5" width="120" height="120" rx="60" fill="#C9C0FF"></rect><path d="M46.7369 46.1316C44.9088 46.1316 43.4211 44.6439 43.4211 42.8158C43.4211 40.9877 44.9088 39.5 46.7369 39.5C48.565 39.5 50.0527 40.9877 50.0527 42.8158C50.0527 44.6439 48.565 46.1316 46.7369 46.1316ZM46.7369 41.7105C46.1279 41.7105 45.6317 42.2068 45.6317 42.8158C45.6317 43.4248 46.1279 43.9211 46.7369 43.9211C47.3459 43.9211 47.8422 43.4248 47.8422 42.8158C47.8422 42.2068 47.3459 41.7105 46.7369 41.7105Z" fill="black"></path><path d="M46.7369 59.3933C44.9088 59.3933 43.4211 57.9056 43.4211 56.0775C43.4211 54.2494 44.9088 52.7617 46.7369 52.7617C48.565 52.7617 50.0527 54.2494 50.0527 56.0775C50.0527 57.9056 48.565 59.3933 46.7369 59.3933ZM46.7369 54.9722C46.1279 54.9722 45.6317 55.4685 45.6317 56.0775C45.6317 56.6865 46.1279 57.1828 46.7369 57.1828C47.3459 57.1828 47.8422 56.6865 47.8422 56.0775C47.8422 55.4685 47.3459 54.9722 46.7369 54.9722Z" fill="black"></path><path d="M46.7369 72.6589C44.9088 72.6589 43.4211 71.1712 43.4211 69.3431C43.4211 67.515 44.9088 66.0273 46.7369 66.0273C48.565 66.0273 50.0527 67.515 50.0527 69.3431C50.0527 71.1712 48.565 72.6589 46.7369 72.6589ZM46.7369 68.2379C46.1279 68.2379 45.6317 68.733 45.6317 69.3431C45.6317 69.9532 46.1279 70.4484 46.7369 70.4484C47.3459 70.4484 47.8422 69.9532 47.8422 69.3431C47.8422 68.733 47.3459 68.2379 46.7369 68.2379Z" fill="black"></path><path d="M74.3684 73.5551C74.3684 72.6996 74.0446 71.8873 73.4554 71.2683C73.0354 70.8273 72.3358 70.8096 71.8926 71.2296C71.4516 71.6507 71.4328 72.3504 71.8539 72.7925C72.0496 72.998 72.1579 73.2688 72.1579 73.5551C72.1579 74.1652 71.6627 74.6604 71.0526 74.6604C70.4425 74.6604 69.9473 74.1652 69.9473 73.5551C69.9473 73.26 70.0623 72.9826 70.2712 72.7737C70.7033 72.3415 70.7033 71.643 70.2712 71.2108C69.839 70.7787 69.1405 70.7787 68.7083 71.2108C68.0828 71.8364 67.7368 72.6698 67.7368 73.5551C67.7368 74.9942 68.6641 76.2088 69.9473 76.6664V80.3934C69.9473 81.0046 70.4414 81.4986 71.0526 81.4986C71.6638 81.4986 72.1579 81.0046 72.1579 80.3934V76.6664C73.4411 76.2088 74.3684 74.993 74.3684 73.5551Z" fill="black"></path><path d="M72.1446 66.0896C72.1457 66.0664 72.1579 66.0487 72.1579 66.0255V38.3939C72.1579 36.5658 70.6702 35.0781 68.8421 35.0781H42.3158C40.4877 35.0781 39 36.5658 39 38.3939V73.7623C39 75.5904 40.4877 77.0781 42.3158 77.0781H61.1705C61.7231 82.0441 65.9408 85.9202 71.0526 85.9202C76.5381 85.9202 81 81.4583 81 75.9729C81 70.8566 77.1172 66.6356 72.1446 66.0896ZM41.2105 50.5518H69.9474V61.6044H41.2105V50.5518ZM42.3158 37.2887H68.8421C69.4522 37.2887 69.9474 37.7849 69.9474 38.3939V48.3413H41.2105V38.3939C41.2105 37.7849 41.7068 37.2887 42.3158 37.2887ZM41.2105 73.7623V63.815H69.9474V66.0255C69.9474 66.0487 69.9595 66.0664 69.9606 66.0896C65.3517 66.5958 61.6833 70.2598 61.1705 74.8676H42.3158C41.7068 74.8676 41.2105 74.3724 41.2105 73.7623ZM71.0526 83.7097C66.7874 83.7097 63.3158 80.2381 63.3158 75.9729C63.3158 71.7076 66.7874 68.236 71.0526 68.236C75.3178 68.236 78.7895 71.7076 78.7895 75.9729C78.7895 80.2381 75.3178 83.7097 71.0526 83.7097Z" fill="black"></path></svg>