<svg xmlns="http://www.w3.org/2000/svg" width="120" height="121" viewBox="0 0 120 121" fill="none"><rect y="0.5" width="120" height="120" rx="60" fill="#9AFFDD"></rect><path d="M76.8556 40H43.1444C41.1354 40 39.5 41.6354 39.5 43.6444V72.8C39.5 74.809 41.1354 76.4444 43.1444 76.4444H57.7222V77.3556C57.7222 79.3646 59.3577 81 61.3667 81H72.3C74.309 81 75.9444 79.3646 75.9444 77.3556V76.4444H76.8556C78.8646 76.4444 80.5 74.809 80.5 72.8V43.6444C80.5 41.6354 78.8646 40 76.8556 40ZM43.1444 41.8222H76.8556C77.8623 41.8222 78.6778 42.6377 78.6778 43.6444V47.2889H41.3222V43.6444C41.3222 42.6377 42.1377 41.8222 43.1444 41.8222ZM59.5444 59.1333H74.1222V74.6222H59.5444V59.1333ZM74.1222 57.3111H59.5444V56.4C59.5444 55.3932 60.3599 54.5778 61.3667 54.5778H72.3C73.3068 54.5778 74.1222 55.3932 74.1222 56.4V57.3111ZM72.3 79.1778H61.3667C60.3599 79.1778 59.5444 78.3623 59.5444 77.3556V76.4444H74.1222V77.3556C74.1222 78.3623 73.3068 79.1778 72.3 79.1778ZM76.8556 74.6222H75.9444V56.4C75.9444 54.391 74.309 52.7556 72.3 52.7556H61.3667C59.3577 52.7556 57.7222 54.391 57.7222 56.4V74.6222H43.1444C42.1377 74.6222 41.3222 73.8068 41.3222 72.8V49.1111H78.6778V72.8C78.6778 73.8068 77.8623 74.6222 76.8556 74.6222ZM43.4132 45.1979C43.2401 45.0293 43.1444 44.797 43.1444 44.5556C43.1444 44.3141 43.2401 44.0818 43.4132 43.9132C43.7503 43.5716 44.3608 43.5716 44.6979 43.9132C44.871 44.0818 44.9667 44.3141 44.9667 44.5556C44.9667 44.797 44.871 45.0293 44.6979 45.1979C44.5293 45.371 44.297 45.4667 44.0556 45.4667C43.8141 45.4667 43.5818 45.371 43.4132 45.1979ZM47.0577 45.1979C46.8846 45.0293 46.7889 44.797 46.7889 44.5556C46.7889 44.4963 46.7934 44.4371 46.8071 44.3779C46.8162 44.3187 46.8344 44.264 46.8572 44.2048C46.88 44.1501 46.9073 44.1 46.9438 44.0499C46.9757 43.9998 47.0121 43.9542 47.0577 43.9087C47.0987 43.8677 47.1442 43.8312 47.1943 43.7993C47.2444 43.7674 47.2946 43.7356 47.3538 43.7128C47.4084 43.69 47.4631 43.6763 47.5223 43.6627C47.8184 43.6034 48.1328 43.6991 48.3469 43.9087C48.5154 44.0818 48.6111 44.3187 48.6111 44.5556C48.6111 44.6148 48.6066 44.674 48.5929 44.7332C48.5838 44.7924 48.5656 44.8471 48.5428 44.9063C48.52 44.961 48.4881 45.0111 48.4562 45.0612C48.4243 45.1113 48.3879 45.1569 48.3469 45.1979C48.3013 45.2434 48.2558 45.2799 48.2057 45.3118C48.1556 45.3437 48.1054 45.3756 48.0508 45.3983C47.9916 45.4211 47.9369 45.4393 47.8777 45.4484C47.8184 45.4621 47.7592 45.4667 47.7 45.4667C47.6408 45.4667 47.5816 45.4621 47.5223 45.4484C47.4631 45.4393 47.4084 45.4211 47.3538 45.3983C47.2946 45.3756 47.2444 45.3437 47.1943 45.3118C47.1442 45.2799 47.0987 45.2434 47.0577 45.1979ZM50.7021 45.2024C50.529 45.0293 50.4333 44.797 50.4333 44.5556C50.4333 44.3141 50.529 44.0818 50.7021 43.9132C51.0392 43.5716 51.6497 43.5716 51.9868 43.9132C52.1599 44.0818 52.2556 44.3141 52.2556 44.5556C52.2556 44.797 52.1599 45.0293 51.9868 45.2024C51.8182 45.371 51.5859 45.4667 51.3444 45.4667C51.103 45.4667 50.8707 45.371 50.7021 45.2024Z" fill="black"></path></svg>