<svg xmlns="http://www.w3.org/2000/svg" width="65" height="65" viewBox="0 0 65 65" fill="none"><path d="M17.314 32.555H19.3388C20.0273 32.555 20.5537 32.0286 20.5537 31.3401V29.3153C20.5537 23.2814 25.4537 18.3814 31.4876 18.3814C32.5405 18.3814 33.5529 18.5434 34.5653 18.8269C35.2132 19.0294 35.9017 18.6244 36.0636 18.017C36.2661 17.369 35.8612 16.6806 35.2537 16.5186C34.0388 16.1542 32.7835 15.9922 31.5281 15.9922C24.1579 15.9922 18.1645 21.9856 18.1645 29.3558V30.1657H17.3545C12.1711 30.1252 8 34.2963 8 39.4393C8 44.5823 12.1711 48.7533 17.314 48.7533H35.5372C36.2256 48.7533 36.7521 48.2269 36.7521 47.5385C36.7521 46.85 36.2256 46.3236 35.5372 46.3236H17.314C13.5074 46.3236 10.4298 43.2459 10.4298 39.4393C10.4298 35.6327 13.5074 32.555 17.314 32.555Z" fill="#F47521"></path><path d="M56.2306 25.8729L46.9165 22.1067C46.633 21.9853 46.3091 21.9853 46.0256 22.1067L36.7116 25.8729C36.2256 26.0348 35.9421 26.4803 35.9421 27.0067V34.1745C35.9421 42.3142 39.5058 44.8249 45.8636 48.591C46.0661 48.7125 46.2686 48.753 46.4711 48.753C46.6735 48.753 46.9165 48.7125 47.0785 48.591C53.4364 44.8249 57 42.3142 57 34.1745V27.0067C57 26.4803 56.7165 26.0348 56.2306 25.8729ZM54.5702 34.1745C54.5702 40.4919 52.343 42.5977 46.4711 46.1208C40.5992 42.5977 38.3719 40.4919 38.3719 34.1745V27.8167L46.4711 24.5365L54.5702 27.8167V34.1745Z" fill="#F47521"></path></svg>